<mxfile host="app.diagrams.net" agent="Mozilla/5.0 (Macintosh; Intel Mac OS X 10_15_7) AppleWebKit/537.36 (KHTML, like Gecko) Chrome/131.0.0.0 Safari/537.36" version="26.0.10">
  <diagram name="第 1 页" id="aBhaQiYXn4jUKXJwocdO">
    <mxGraphModel dx="443" dy="720" grid="1" gridSize="10" guides="1" tooltips="1" connect="1" arrows="1" fold="1" page="1" pageScale="1" pageWidth="1169" pageHeight="827" math="0" shadow="0">
      <root>
        <mxCell id="0" />
        <mxCell id="1" parent="0" />
        <mxCell id="iXTf0M0M9sNiWv3CrGNs-22" value="" style="group;rotation=345;" parent="1" vertex="1" connectable="0">
          <mxGeometry x="120" y="280" width="200" height="200" as="geometry" />
        </mxCell>
        <mxCell id="iXTf0M0M9sNiWv3CrGNs-16" style="rounded=0;orthogonalLoop=1;jettySize=auto;html=1;strokeWidth=1.5;endArrow=none;startFill=0;fillColor=#dae8fc;strokeColor=#000000;dashed=1;" parent="iXTf0M0M9sNiWv3CrGNs-22" edge="1">
          <mxGeometry relative="1" as="geometry">
            <mxPoint x="95" y="81" as="sourcePoint" />
            <mxPoint x="105" y="119" as="targetPoint" />
          </mxGeometry>
        </mxCell>
        <mxCell id="iXTf0M0M9sNiWv3CrGNs-15" style="rounded=0;orthogonalLoop=1;jettySize=auto;html=1;strokeWidth=1.5;endArrow=none;startFill=0;fillColor=#dae8fc;strokeColor=#000000;" parent="iXTf0M0M9sNiWv3CrGNs-22" edge="1">
          <mxGeometry relative="1" as="geometry">
            <mxPoint x="223" y="171" as="sourcePoint" />
            <mxPoint x="105" y="119" as="targetPoint" />
          </mxGeometry>
        </mxCell>
        <mxCell id="iXTf0M0M9sNiWv3CrGNs-13" style="rounded=0;orthogonalLoop=1;jettySize=auto;html=1;strokeWidth=1.5;endArrow=none;startFill=0;fillColor=#dae8fc;strokeColor=#000000;dashed=1;" parent="iXTf0M0M9sNiWv3CrGNs-22" edge="1">
          <mxGeometry relative="1" as="geometry">
            <mxPoint x="95" y="81" as="sourcePoint" />
            <mxPoint x="223" y="171" as="targetPoint" />
          </mxGeometry>
        </mxCell>
        <mxCell id="iXTf0M0M9sNiWv3CrGNs-12" style="rounded=0;orthogonalLoop=1;jettySize=auto;html=1;strokeWidth=1.5;endArrow=none;startFill=0;fillColor=#dae8fc;strokeColor=#000000;dashed=1;" parent="iXTf0M0M9sNiWv3CrGNs-22" edge="1">
          <mxGeometry relative="1" as="geometry">
            <mxPoint x="-23" y="29" as="sourcePoint" />
            <mxPoint x="95" y="81" as="targetPoint" />
          </mxGeometry>
        </mxCell>
        <mxCell id="iXTf0M0M9sNiWv3CrGNs-14" style="rounded=0;orthogonalLoop=1;jettySize=auto;html=1;strokeWidth=1.5;endArrow=none;startFill=0;fillColor=#dae8fc;strokeColor=#000000;" parent="iXTf0M0M9sNiWv3CrGNs-22" edge="1">
          <mxGeometry relative="1" as="geometry">
            <mxPoint x="105" y="119" as="sourcePoint" />
            <mxPoint x="-23" y="29" as="targetPoint" />
          </mxGeometry>
        </mxCell>
        <mxCell id="iXTf0M0M9sNiWv3CrGNs-4" style="rounded=0;orthogonalLoop=1;jettySize=auto;html=1;strokeWidth=2;endArrow=none;startFill=0;fillColor=#f8cecc;strokeColor=#b85450;" parent="iXTf0M0M9sNiWv3CrGNs-22" edge="1">
          <mxGeometry relative="1" as="geometry">
            <mxPoint x="-23" y="29" as="sourcePoint" />
            <mxPoint x="171" y="-23" as="targetPoint" />
          </mxGeometry>
        </mxCell>
        <mxCell id="iXTf0M0M9sNiWv3CrGNs-5" style="rounded=0;orthogonalLoop=1;jettySize=auto;html=1;strokeWidth=2;endArrow=none;startFill=0;fillColor=#f8cecc;strokeColor=#b85450;" parent="iXTf0M0M9sNiWv3CrGNs-22" edge="1">
          <mxGeometry relative="1" as="geometry">
            <mxPoint x="-23" y="29" as="sourcePoint" />
            <mxPoint x="29" y="223" as="targetPoint" />
          </mxGeometry>
        </mxCell>
        <mxCell id="iXTf0M0M9sNiWv3CrGNs-6" style="rounded=0;orthogonalLoop=1;jettySize=auto;html=1;strokeWidth=2;endArrow=none;startFill=0;fillColor=#d5e8d4;strokeColor=#82b366;" parent="iXTf0M0M9sNiWv3CrGNs-22" edge="1">
          <mxGeometry relative="1" as="geometry">
            <mxPoint x="171" y="-23" as="sourcePoint" />
            <mxPoint x="223" y="171" as="targetPoint" />
          </mxGeometry>
        </mxCell>
        <mxCell id="iXTf0M0M9sNiWv3CrGNs-7" style="rounded=0;orthogonalLoop=1;jettySize=auto;html=1;strokeWidth=2;endArrow=none;startFill=0;fillColor=#d5e8d4;strokeColor=#82b366;" parent="iXTf0M0M9sNiWv3CrGNs-22" edge="1">
          <mxGeometry relative="1" as="geometry">
            <mxPoint x="29" y="223" as="sourcePoint" />
            <mxPoint x="223" y="171" as="targetPoint" />
          </mxGeometry>
        </mxCell>
        <mxCell id="iXTf0M0M9sNiWv3CrGNs-8" style="rounded=0;orthogonalLoop=1;jettySize=auto;html=1;strokeWidth=1.5;endArrow=none;startFill=0;fillColor=#dae8fc;strokeColor=#6c8ebf;dashed=1;" parent="iXTf0M0M9sNiWv3CrGNs-22" edge="1">
          <mxGeometry relative="1" as="geometry">
            <mxPoint x="29" y="223" as="sourcePoint" />
            <mxPoint x="95" y="81" as="targetPoint" />
          </mxGeometry>
        </mxCell>
        <mxCell id="iXTf0M0M9sNiWv3CrGNs-9" style="rounded=0;orthogonalLoop=1;jettySize=auto;html=1;strokeWidth=1.5;endArrow=none;startFill=0;fillColor=#dae8fc;strokeColor=#6c8ebf;" parent="iXTf0M0M9sNiWv3CrGNs-22" edge="1">
          <mxGeometry relative="1" as="geometry">
            <mxPoint x="29" y="223" as="sourcePoint" />
            <mxPoint x="105" y="119" as="targetPoint" />
          </mxGeometry>
        </mxCell>
        <mxCell id="iXTf0M0M9sNiWv3CrGNs-10" style="rounded=0;orthogonalLoop=1;jettySize=auto;html=1;strokeWidth=1.5;endArrow=none;startFill=0;fillColor=#dae8fc;strokeColor=#6c8ebf;" parent="iXTf0M0M9sNiWv3CrGNs-22" edge="1">
          <mxGeometry relative="1" as="geometry">
            <mxPoint x="105" y="119" as="sourcePoint" />
            <mxPoint x="171" y="-23" as="targetPoint" />
          </mxGeometry>
        </mxCell>
        <mxCell id="iXTf0M0M9sNiWv3CrGNs-11" style="rounded=0;orthogonalLoop=1;jettySize=auto;html=1;strokeWidth=1.5;endArrow=none;startFill=0;fillColor=#dae8fc;strokeColor=#6c8ebf;dashed=1;" parent="iXTf0M0M9sNiWv3CrGNs-22" edge="1">
          <mxGeometry relative="1" as="geometry">
            <mxPoint x="95" y="81" as="sourcePoint" />
            <mxPoint x="171" y="-23" as="targetPoint" />
          </mxGeometry>
        </mxCell>
        <mxCell id="iXTf0M0M9sNiWv3CrGNs-18" style="rounded=0;orthogonalLoop=1;jettySize=auto;html=1;strokeWidth=1.5;endArrow=none;startFill=0;fillColor=#e1d5e7;strokeColor=#9673a6;dashed=1;" parent="iXTf0M0M9sNiWv3CrGNs-22" edge="1">
          <mxGeometry relative="1" as="geometry">
            <mxPoint x="126" y="197" as="sourcePoint" />
            <mxPoint x="158" y="126" as="targetPoint" />
          </mxGeometry>
        </mxCell>
        <mxCell id="iXTf0M0M9sNiWv3CrGNs-19" style="rounded=0;orthogonalLoop=1;jettySize=auto;html=1;strokeWidth=1.5;endArrow=none;startFill=0;fillColor=#e1d5e7;strokeColor=#9673a6;" parent="iXTf0M0M9sNiWv3CrGNs-22" edge="1">
          <mxGeometry relative="1" as="geometry">
            <mxPoint x="126" y="197" as="sourcePoint" />
            <mxPoint x="164" y="145" as="targetPoint" />
          </mxGeometry>
        </mxCell>
        <mxCell id="iXTf0M0M9sNiWv3CrGNs-20" style="rounded=0;orthogonalLoop=1;jettySize=auto;html=1;strokeWidth=1.5;endArrow=none;startFill=0;fillColor=#e1d5e7;strokeColor=#9673a6;" parent="iXTf0M0M9sNiWv3CrGNs-22" edge="1">
          <mxGeometry relative="1" as="geometry">
            <mxPoint x="164" y="145" as="sourcePoint" />
            <mxPoint x="197" y="74" as="targetPoint" />
          </mxGeometry>
        </mxCell>
        <mxCell id="iXTf0M0M9sNiWv3CrGNs-21" style="rounded=0;orthogonalLoop=1;jettySize=auto;html=1;strokeWidth=1.5;endArrow=none;startFill=0;fillColor=#e1d5e7;strokeColor=#9673a6;dashed=1;" parent="iXTf0M0M9sNiWv3CrGNs-22" edge="1">
          <mxGeometry relative="1" as="geometry">
            <mxPoint x="158" y="126" as="sourcePoint" />
            <mxPoint x="197" y="74" as="targetPoint" />
          </mxGeometry>
        </mxCell>
        <mxCell id="iXTf0M0M9sNiWv3CrGNs-2" style="rounded=0;orthogonalLoop=1;jettySize=auto;html=1;exitX=0;exitY=0;exitDx=0;exitDy=0;entryX=1;entryY=1;entryDx=0;entryDy=0;strokeWidth=2;fillColor=#ffe6cc;strokeColor=#d79b00;dashed=1;endSize=3;" parent="iXTf0M0M9sNiWv3CrGNs-22" edge="1">
          <mxGeometry relative="1" as="geometry">
            <mxPoint x="-23" y="29" as="sourcePoint" />
            <mxPoint x="223" y="171" as="targetPoint" />
          </mxGeometry>
        </mxCell>
      </root>
    </mxGraphModel>
  </diagram>
</mxfile>
